<svg id="Layer_1_1_" enable-background="new 0 0 64 64" height="512" viewBox="0 0 64 64" width="512" xmlns="http://www.w3.org/2000/svg"><path d="m45.773 36.773-4.773-4.773v-13h-6l-2.661 11.976c-.89 4.004-1.339 8.093-1.339 12.195v12.829h17l1.445-5.056c.368-1.29.555-2.624.555-3.965 0-3.828-1.521-7.5-4.227-10.206z" fill="#57a7e6"/><path d="m38 15h-4l-10 7-20 3c0 7.747 2.912 12.561 4.98 15.012 1.135 1.345 2.02 1.988 2.02 1.988l21.744-12.849 2.256-10.151h3c1.105 0 2-.895 2-2s-.895-2-2-2z" fill="#f2c720"/><path d="m48 56 1.143-4h-18.143v4z" fill="#0a5fa2"/><path d="m48 12v-2l-4-1v4z" fill="#57a7e6"/><g fill="#f2c720"><path d="m43 22c0-1.105-.895-2-2-2h-1c-1.105 0-2 .895-2 2s.895 2 2 2h1c1.105 0 2-.895 2-2z"/><path d="m43 26c0-1.105-.895-2-2-2h-1c-1.105 0-2 .895-2 2s.895 2 2 2h1c1.105 0 2-.895 2-2z"/><path d="m48.352 14-8.105.501-2.247.499v5h4l3-2 3.675-.735c.77-.154 1.325-.831 1.325-1.617 0-.91-.738-1.648-1.648-1.648z"/></g><path d="m22.999 32c-2.999 3-8.929 7.703-10.016 8.828l19.761-11.677 2.256-10.151s-3.487 4.485-12.001 13z" fill="#cca408"/><path d="m4 27-2 .308v16.692l7-4z" fill="#f2c09d"/><path d="m32 9v5l2 1h5l5-2v-4z" fill="#0a5fa2"/><path d="m37.684 36.949c.055.018 5.46 1.867 6.336 6.248l1.961-.393c-1.101-5.505-7.397-7.663-7.664-7.752z"/><path d="m31 24-1.999-.043c-.001.016-.188 1.684-3.601 4.243l1.2 1.6c4.189-3.141 4.4-5.383 4.4-5.8z"/><path d="m51.964 5.5h7.071v2h-7.071z" transform="matrix(.707 -.707 .707 .707 11.659 41.148)"/><path d="m56 10h6v2h-6z"/><path d="m54.5 11.964h2v7.071h-2z" transform="matrix(.707 -.707 .707 .707 5.295 43.784)"/><path d="m1.504 43.132.992 1.736 6.266-3.58c.897.962 1.569 1.463 1.657 1.526.173.124.377.186.581.186.175 0 .352-.046.509-.139l19.773-11.684c-.844 3.936-1.282 7.967-1.282 11.994v12.829c0 .552.448 1 1 1h17c.446 0 .839-.296.961-.725l1.445-5.057c.394-1.379.594-2.806.594-4.239 0-4.123-1.605-7.998-4.521-10.913l-4.479-4.48v-2.77c1.161-.414 2-1.514 2-2.816 0-.771-.301-1.468-.78-2 .48-.532.78-1.229.78-2 0-.654-.216-1.256-.573-1.749l1.446-.964 1.42 1.42 1.414-1.414-.679-.679 1.843-.369c1.233-.246 2.129-1.339 2.129-2.597 0-1.459-1.186-2.646-2.707-2.646-.001 0-.002 0-.003 0l-.232.014.184-.046c.446-.111.758-.511.758-.97v-2c0-.459-.313-.859-.757-.97l-4-1-.005.018c-.078-.02-.154-.048-.238-.048h-12c-.552 0-1 .448-1 1v5c0 .379.214.725.553.895l.498.249-8.432 5.902-19.767 2.965c-.49.073-.852.494-.852.989 0 .393.027.758.041 1.136l-1.193.183.304 1.977 1.027-.158c.571 5.452 2.537 9.233 4.288 11.587zm30.496 11.868v-2h15.817l-.572 2zm13.065-17.521c2.538 2.538 3.935 5.911 3.935 9.5 0 1.248-.174 2.49-.517 3.69l-.094.331h-16.389v-7.829c0-4.023.442-8.053 1.315-11.979l2.487-11.192h1.978c-.48.532-.78 1.229-.78 2s.301 1.468.78 2c-.48.532-.78 1.229-.78 2 0 1.654 1.346 3 3 3v3c0 .265.105.52.293.707zm-3.065-15.479c0 .551-.449 1-1 1h-1c-.551 0-1-.449-1-1s.449-1 1-1h1c.551 0 1 .449 1 1zm-1 5h-1c-.551 0-1-.449-1-1s.449-1 1-1h1c.551 0 1 .449 1 1s-.449 1-1 1zm.605-7.939c-.195-.04-.398-.061-.605-.061h-.78c.48-.532.78-1.229.78-2 0-.556-.162-1.07-.426-1.517l.466-.029 2.39 2.39zm6.747-4.061c.357 0 .648.291.648.648 0 .308-.219.576-.521.636l-3.15.63-1.626-1.626zm-1.352-3.781-2 .5v-1.438l2 .5zm-14-1.219h10v2.323l-4.368 1.747c-.204-.044-.415-.07-.632-.07h-3.764l-1.236-.618zm-8.852 12.989c.153-.023.298-.081.425-.169l9.742-6.82h3.685c.551 0 1 .449 1 1s-.449 1-1 1h-4c-.379 0-.725.214-.895.553l-2 4 1.789.895.167-.335-1.2 5.398-20.762 12.269c-1.475-1.337-5.821-6.018-6.086-14.92z"/></svg>