<svg id="Layer_2" enable-background="new 0 0 64 64" height="512" viewBox="0 0 64 64" width="512" xmlns="http://www.w3.org/2000/svg"><g><g><g><path d="m13.87 16.28 8.83 5.82v.01c-.3-.08-.6-.11-.92-.11-.98 0-1.78.8-1.78 1.78 0 .15.02.29.05.43.32 1.28.58 2.57.8 3.86h-.01l-10.3-6.8c-1.62 3.23-2.54 6.87-2.54 10.73 0 11.18 7.65 20.57 18 23.24 1.92.5 3.93.76 6 .76 2.81 0 5.5-.48 8-1.37 4.04-1.43 7.59-3.92 10.31-7.13l-6.17-4.07c2.02-.75 3.7-2.21 4.73-4.07l4.73 3.12c1.53-3.17 2.4-6.72 2.4-10.48 0-13.25-10.75-24-24-24-7.24 0-13.73 3.21-18.13 8.28zm18.13-14.28c16.57 0 30 13.43 30 30s-13.43 30-30 30-30-13.43-30-30 13.43-30 30-30z" fill="#ff826e"/><path d="m42 26-.01.06c-.33-.04-.66-.06-.99-.06-1.05 0-2.06.18-3 .52v-.01-4.51c0-.55.22-1.05.59-1.41.36-.37.86-.59 1.41-.59 1.1 0 2 .9 2 2z" fill="#f5e0cd"/><path d="m20 23.78c0-.98.8-1.78 1.78-1.78.32 0 .62.03.92.11 1.89.41 3.3 2.1 3.3 4.11v-8.22c0-.55.22-1.05.59-1.41.36-.37.86-.59 1.41-.59 1.1 0 2 .9 2 2v-2c0-.55.22-1.05.59-1.41.36-.37.86-.59 1.41-.59 1.1 0 2 .9 2 2v2c0-.55.22-1.05.59-1.41.36-.37.86-.59 1.41-.59 1.1 0 2 .9 2 2v4 4.51.01c-3.5 1.23-6 4.56-6 8.48 0 4.9 3.92 8.88 8.79 9-.07.19-.14.39-.22.58l-.14.35c-.28.71-.43 1.46-.43 2.23v7.47c-2.5.89-5.19 1.37-8 1.37-2.07 0-4.08-.26-6-.76v-7.14c0-1.36-.46-2.68-1.31-3.74l-1.15-1.43c-1-1.26-1.61-2.79-1.73-4.39l-.51-6.65c-.1-1.28-.25-2.55-.45-3.82-.22-1.29-.48-2.58-.8-3.86-.03-.14-.05-.28-.05-.43z" fill="#f5e0cd"/><path d="m41.99 26.06c4.5.49 8.01 4.3 8.01 8.94 0 1.58-.41 3.07-1.13 4.36-1.03 1.86-2.71 3.32-4.73 4.07-.98.37-2.04.57-3.14.57-.07 0-.14 0-.21 0-4.87-.12-8.79-4.1-8.79-9 0-3.92 2.5-7.25 6-8.48.94-.34 1.95-.52 3-.52.33 0 .66.02.99.06z" fill="#5cd6b3"/><path d="m43.12 32.88c.54.54.88 1.29.88 2.12s-.34 1.58-.88 2.12-1.29.88-2.12.88-1.58-.34-2.12-.88-.88-1.29-.88-2.12.34-1.58.88-2.12 1.29-.88 2.12-.88 1.58.34 2.12.88z" fill="#ff826e"/></g></g><g><path d="m35 28h-2v-12c0-.551-.449-1-1-1s-1 .449-1 1v12h-2v-12c0-1.654 1.346-3 3-3s3 1.346 3 3z"/></g><g><path d="m43 26h-2v-4c0-.551-.449-1-1-1s-1 .449-1 1h-2c0-1.654 1.346-3 3-3s3 1.346 3 3z"/></g><g><path d="m41 54.635h-2v-7.479c0-.895.168-1.77.501-2.6l.14-.351c.073-.182.143-.363.209-.547l1.88.684c-.074.203-.151.405-.232.606l-.14.35c-.238.594-.358 1.218-.358 1.857z"/></g><g><path d="m27 55.244h-2v-7.14c0-1.131-.389-2.24-1.096-3.123l-1.145-1.431c-1.134-1.418-1.807-3.123-1.946-4.934l-.512-6.648c-.194-2.527-.604-5.055-1.219-7.514-.054-.221-.082-.448-.082-.673 0-1.533 1.248-2.781 2.781-2.781 2.878 0 5.219 2.342 5.219 5.22h-2c0-1.775-1.444-3.22-3.219-3.22-.431 0-.781.35-.781.781 0 .063.008.127.024.191.641 2.566 1.069 5.206 1.272 7.844l.512 6.648c.108 1.408.631 2.734 1.513 3.837l1.145 1.431c.989 1.236 1.534 2.789 1.534 4.372z"/></g><g><path d="m27.553 35.895c-1.575-.789-2.553-2.372-2.553-4.131v-13.764c0-1.654 1.346-3 3-3s3 1.346 3 3h-2c0-.551-.449-1-1-1s-1 .449-1 1v13.764c0 .998.555 1.895 1.447 2.341z"/></g><g><path d="m39 26.513h-2v-8.513c0-.551-.449-1-1-1s-1 .449-1 1h-2c0-1.654 1.346-3 3-3s3 1.346 3 3z"/></g><g><path d="m32 63c-17.093 0-31-13.906-31-31 0-17.093 13.907-31 31-31s31 13.907 31 31c0 17.094-13.907 31-31 31zm0-60c-15.991 0-29 13.009-29 29 0 15.99 13.009 29 29 29s29-13.01 29-29c0-15.991-13.009-29-29-29z"/></g><g><path d="m41 39c-2.206 0-4-1.794-4-4s1.794-4 4-4 4 1.794 4 4-1.794 4-4 4zm0-6c-1.103 0-2 .897-2 2s.897 2 2 2 2-.897 2-2-.897-2-2-2z"/></g><g><path d="m40 29h2v3h-2z"/></g><g><path d="m40 38h2v3h-2z"/></g><g><path d="m44 34h3v2h-3z"/></g><g><path d="m35 34h3v2h-3z"/></g><g><path d="m42.682 30.818h3v2h-3z" transform="matrix(.707 -.707 .707 .707 -9.558 40.561)"/></g><g><path d="m36.318 37.182h3v2h-3z" transform="matrix(.707 -.707 .707 .707 -15.922 37.925)"/></g><g><path d="m43.182 36.682h2v3h-2z" transform="matrix(.707 -.707 .707 .707 -14.057 42.431)"/></g><g><path d="m36.818 30.318h2v3h-2z" transform="matrix(.707 -.707 .707 .707 -11.422 36.061)"/></g><g><path d="m41 45c-5.514 0-10-4.486-10-10s4.486-10 10-10 10 4.486 10 10-4.486 10-10 10zm0-18c-4.411 0-8 3.589-8 8s3.589 8 8 8 8-3.589 8-8-3.589-8-8-8z"/></g><g><path d="m53.996 43.942-5.674-3.743 1.102-1.67 3.748 2.473c1.213-2.846 1.828-5.868 1.828-9.002 0-12.682-10.318-23-23-23-6.28 0-12.267 2.57-16.599 7.089l7.848 5.176-1.102 1.67-9.777-6.448.748-.862c4.758-5.481 11.64-8.625 18.882-8.625 13.785 0 25 11.215 25 25 0 3.824-.843 7.497-2.505 10.917z"/></g><g><path d="m32 57c-13.785 0-25-11.215-25-25 0-3.923.889-7.685 2.641-11.182l.504-1.007 11.25 7.42-1.102 1.67-9.346-6.165c-1.293 2.924-1.947 6.035-1.947 9.264 0 12.683 10.318 23 23 23 6.391 0 12.451-2.646 16.799-7.299l-5.35-3.527 1.101-1.67 7.256 4.785-.729.86c-4.766 5.625-11.719 8.851-19.077 8.851z"/></g></g></svg>