<svg id="Social_Distancing" height="512" viewBox="0 0 64 64" width="512" xmlns="http://www.w3.org/2000/svg" data-name="Social Distancing"><path d="m8 31v14h-3a1 1 0 0 1 -1-1v-11z" fill="#ffcbbe"/><path d="m8 34-5-1 5-6z" fill="#5bcbfa"/><path d="m20 33v12h3a1 1 0 0 0 1-1v-11z" fill="#ffcbbe"/><path d="m20 34 5-1-5-6z" fill="#5bcbfa"/><path d="m20 43h-12l-1-17 7-1 7 1z" fill="#48a3d2"/><path d="m8 43h12v15h-12z" fill="#365e7d"/><path d="m8 57h6v4h-8v-2a2 2 0 0 1 2-2z" fill="#3e3d42"/><path d="m20 57h-6v4h8v-2a2 2 0 0 0 -2-2z" fill="#3e3d42"/><circle cx="14" cy="26.225" fill="#ffcbbe" r="3"/><path d="m44 31v14h-3a1 1 0 0 1 -1-1v-11z" fill="#ffcbbe"/><path d="m44 34-5-1 5-6z" fill="#ffa403"/><path d="m56 31v14h3a1 1 0 0 0 1-1v-11z" fill="#ffcbbe"/><path d="m56 34 5-1-5-6z" fill="#ffa403"/><path d="m56 43h-12l-1-17 7-1 7 1z" fill="#ffc740"/><path d="m44 43h12v15h-12z" fill="#acabb1"/><path d="m44 57h6v4h-8v-2a2 2 0 0 1 2-2z" fill="#3e3d42"/><path d="m56 57h-6v4h8v-2a2 2 0 0 0 -2-2z" fill="#3e3d42"/><circle cx="50" cy="26.225" fill="#ffcbbe" r="3"/><path d="m50 26a5 5 0 0 1 -5-5v-5l10 1v4a5 5 0 0 1 -5 5z" fill="#ffddce"/><path d="m55 17h-8a4 4 0 0 1 -4-4v-1h8a4 4 0 0 1 4 4z" fill="#3e3d42"/><path d="m14 26a5 5 0 0 1 -5-5v-5l10 1v4a5 5 0 0 1 -5 5z" fill="#ffddce"/><path d="m19 17h-8a4 4 0 0 1 -4-4v-1h8a4 4 0 0 1 4 4z" fill="#3e3d42"/><path d="m29 15h-5v2h4v2h-3a1 1 0 0 0 -1 1v4a1 1 0 0 0 1 1h5v-2h-4v-2h3a1 1 0 0 0 1-1v-4a1 1 0 0 0 -1-1z"/><path d="m40 16v9h-2v-8h-1v4h-2v-4h-1v8h-2v-9a1 1 0 0 1 1-1h6a1 1 0 0 1 1 1z"/><path d="m41.8 7.6-3 4-1.6-1.2 1.8-2.4h-14l1.8 2.4-1.6 1.2-3-4a.99.99 0 0 1 0-1.2l3-4 1.6 1.2-1.8 2.4h14l-1.8-2.4 1.6-1.2 3 4a.99.99 0 0 1 0 1.2z"/><path d="m61.77 32.36-3.87-4.65.1-1.65a1 1 0 0 0 -.86-1.05l-2.4-.34a5.969 5.969 0 0 0 1.26-3.67v-5a5 5 0 0 0 -5-5h-8a1 1 0 0 0 -1 1v1a4.952 4.952 0 0 0 2 3.97v4.03a5.969 5.969 0 0 0 1.26 3.67l-2.4.34a1 1 0 0 0 -.86 1.05l.1 1.65-3.87 4.65a1 1 0 0 0 -.17.97.978.978 0 0 0 .74.65l.2.04v9.98a2.006 2.006 0 0 0 2 2h2v10.18a3.01 3.01 0 0 0 -2 2.82v2a1 1 0 0 0 1 1h16a1 1 0 0 0 1-1v-2a3.01 3.01 0 0 0 -2-2.82v-10.18h2a2.006 2.006 0 0 0 2-2v-9.98l.2-.04a.978.978 0 0 0 .74-.65 1 1 0 0 0 -.17-.97zm-17.77-19.36h7a3.009 3.009 0 0 1 3 3h-7a3.009 3.009 0 0 1 -3-3zm6 12a4 4 0 0 1 -4-4v-3.1a5.468 5.468 0 0 0 1 .1h7v3a4 4 0 0 1 -4 4zm1.95 1.67a2 2 0 0 1 -3.9 0 5.926 5.926 0 0 0 3.9 0zm-5.92-.09a3.984 3.984 0 0 0 7.94 0l1.98.28-.89 15.14h-10.12l-.89-15.14zm-5.19 5.77 1.43-1.72.12 2.03zm.16 11.65v-9.58l1.51.3.49 8.31v.97zm8 16h-6v-1a1 1 0 0 1 1-1h5zm0-14.86v10.86h-4v-12h10v12h-4v-10.86zm8 14.86h-6v-2h5a1 1 0 0 1 1 1zm2-16h-2v-.97l.49-8.31 1.51-.3zm-1.39-11.34.12-2.03 1.43 1.72z"/><path d="m25.77 32.36-3.87-4.65.1-1.65a1 1 0 0 0 -.86-1.05l-2.4-.34a5.969 5.969 0 0 0 1.26-3.67v-5a5 5 0 0 0 -5-5h-8a1 1 0 0 0 -1 1v1a4.952 4.952 0 0 0 2 3.97v4.03a5.969 5.969 0 0 0 1.26 3.67l-2.4.34a1 1 0 0 0 -.86 1.05l.1 1.65-3.87 4.65a1 1 0 0 0 -.17.97.978.978 0 0 0 .74.65l.2.04v9.98a2.006 2.006 0 0 0 2 2h2v10.18a3.01 3.01 0 0 0 -2 2.82v2a1 1 0 0 0 1 1h16a1 1 0 0 0 1-1v-2a3.01 3.01 0 0 0 -2-2.82v-10.18h2a2.006 2.006 0 0 0 2-2v-9.98l.2-.04a.978.978 0 0 0 .74-.65 1 1 0 0 0 -.17-.97zm-17.77-19.36h7a3.009 3.009 0 0 1 3 3h-7a3.009 3.009 0 0 1 -3-3zm6 12a4 4 0 0 1 -4-4v-3.1a5.468 5.468 0 0 0 1 .1h7v3a4 4 0 0 1 -4 4zm1.95 1.67a2 2 0 0 1 -3.9 0 5.926 5.926 0 0 0 3.9 0zm-5.92-.09a3.984 3.984 0 0 0 7.94 0l1.98.28-.89 15.14h-10.12l-.89-15.14zm-5.19 5.77 1.43-1.72.12 2.03zm.16 11.65v-9.58l1.51.3.49 8.31v.97zm8 16h-6v-1a1 1 0 0 1 1-1h5zm0-14.86v10.86h-4v-12h10v12h-4v-10.86zm8 14.86h-6v-2h5a1 1 0 0 1 1 1zm2-16h-2v-.97l.49-8.31 1.51-.3zm-1.39-11.34.12-2.03 1.43 1.72z"/></svg>